<svg xmlns="http://www.w3.org/2000/svg" viewBox="0 0 1024 1024">
  <path fill="#8b8b86" d="m230 634-6-9a273 273 0 0 1 17-297q25 33 61 53a224 224 0 0 0 295-65q15-21 26-43l16 12q31 29 57 61l6 7 4 5q31 38 54 80l10 20 13 29q33 73 47 152l10 62v13q0 11-11 10-13-1-24-10-29-21-48-52l-4-7-17 24-48-3q-36-4-69-18a284 284 0 0 1-134-114l-15-29a136 136 0 0 1-214-16l-4 6-12 25q-22 51-10 104"/>
  <path fill="#263039" d="M623 273q-12 22-26 43-27 40-70 64-42 25-91 30a224 224 0 0 1-197-83l2-23 2-24 7-36c12-50 31-95 68-132q49-47 117-46 82 3 131 67 38 51 51 112zm-238-14q2 5 6 9l30 22q12 7 24-1l22-16q8-5 11-16l-1-6q-13-20-30-39-18-18-35 2l-23 32q-3 5-4 13m147-63-2-1q-15-7-24 6c-5 8-4 19 3 25s18 6 25 0c9-8 8-21-2-30m-209 15 1 7q5 13 19 12 13-1 17-14 2-14-9-21c-9-5-27-1-28 16"/>
  <path fill="#e1e1e0" d="M230 634q-12-53 10-104l12-25 4-6q39 55 104 60 65 4 110-44l15 29a264 264 0 0 0 134 114q33 14 69 18l48 3a219 219 0 0 1-73 68l-43 23-29 10-20 5-51 6a335 335 0 0 1-90-9l-32-9-24-9-2-2a294 294 0 0 1-113-85l-28-40z"/>
  <path fill="#262e35" d="m770 457-10-19a468 468 0 0 0-57-85q39-54 85-102 18-19 38-36l13-7q13-6 12 8-3 15-9 29a488 488 0 0 1-48 88l4-3q37-40 79-73l34-23q4-3 10-3 8-2 9 7-1 15-8 28-16 36-41 66-36 49-78 93-15 17-33 32"/>
  <path fill="#8d8d88" d="m520 906-39-12q-26-6-50 5l-54 21c-10 4-19-2-18-13q0-7 8-9l33-15 8-4 4-5-4-4-16-6-59-19 3-6c8-10 17-18 32-12l19 5 35 11 121 37-21 25z"/>
  <path fill="#8c8d87" d="m278 827-51-16-109-35q-9-3-11-11c-1-8 7-15 15-12l53 15 21 6q3 1 7-1 2-3-1-7l-23-38-4-5q-5-11 4-16t17 4l24 36q16 25 39 42 17 11 38 17-12 9-19 21"/>
  <path fill="#a5a6a3" d="m520 906 2-1 21-25q18-10 29-27l7-24 12-49 29-10-21 78q-6 17-2 35l1 12c-7 0-13-1-18 5q-9 9-10 23l-2 19-1 16q-2 9-10 9-9-1-10-10l1-38v-4l5-13-2-1-9 13-6 9q-6 10-14 7-8-5-5-15z"/>
  <path fill="#7f807b" d="M278 827q7-12 19-21h1q21-9 44-14 6-2 10-7l22-21 24 9-6 7-18 18q-5 7 2 10 14 9 11 24l-19-5c-15-6-24 2-32 12l-3 6q-4 9-3 20 3 10-6 13-8 3-13-7l-1-2q-5 8-13 5c-8-4-7-12-8-19q-16-3-12-21z"/>
  <path fill="#8d8e88" d="M570 923q1-14 10-23 8-7 18-4l15 5 101 31q18 6 13 23-4 16-22 11l-55-17z"/>
  <path fill="#898a85" d="m542 914 9-13 2 1-5 13z"/>
  <path fill="#898a84" d="m385 258 4-12 23-32q17-20 35-2 16 19 30 39l1 6q-23 7-43 19-3 3-6 0l-15-7z"/>
  <path fill="#636765" d="m385 258 29 11 15 7q3 3 6 0 20-12 43-19-3 10-11 16l-22 16q-12 8-24 1l-30-22q-4-3-6-10"/>
  <path fill="#888984" d="M532 196c10 9 11 22 2 30-7 6-18 6-25 0s-8-17-3-25q9-13 24-6z"/>
  <path fill="#878884" d="M323 211c1-17 19-21 28-16q11 7 9 21-4 13-17 14-14 1-19-12z"/>
</svg>
